<svg width="177" height="165" viewBox="0 0 177 165" fill="none" xmlns="http://www.w3.org/2000/svg">
<path d="M9 0L46 12L69 20H108L168 0H170L177 29V37L167 80V88L177 118L176 128L166 161L157 160L129 153L124 154L107 165H71L53 153L45 154L17 161H12L0 122L3 111L11 87L10 77L0 34L4 16L8 1L9 0ZM14 14L10 30V37L20 79L29 77L55 69L65 55L64 52L51 42L37 31L23 20L15 14H14ZM163 14L147 27L130 40L113 54L119 63L125 70L154 79H158L168 36L167 26L164 14H163ZM38 20L43 25L58 37L75 50L77 54L65 69L60 76L38 83L21 88L17 98L11 117H61L57 145L76 157H102L118 147L121 144L117 117H166L164 108L158 90L149 86L118 76L105 58L101 51L105 49L120 37L134 26L140 21L137 20L110 29H67L41 20H38ZM11 125L14 136L19 151L48 144L49 143L51 125H11ZM127 126L129 143L138 146L155 150H160L166 129V126H127Z" fill="#E5E7EB"/>
<path d="M79 129H99L101 131V145H77V131L79 129Z" fill="#E5E7EB"/>
<path d="M108 97L112 98L121 104V106L106 109H101L103 104L108 97Z" fill="#E5E7EB"/>
<path d="M67 97L71 98L77 107V109L67 108L57 106L58 103L67 97Z" fill="#E5E7EB"/>
</svg>
